<svg xmlns="http://www.w3.org/2000/svg" width="24" height="24" viewBox="0 0 24 24" fill="none" stroke="currentColor" stroke-width="2" stroke-linecap="round" stroke-linejoin="round"><rect x="1" y="1" width="22" height="22" rx="1" stroke-width="1" fill="none"/><g stroke-width="0.5" fill="currentColor"><g transform="translate(7 7)"><circle cx="0" cy="0" r="1"/><circle cx="1" cy="1" r="0.5"/><circle cx="-1" cy="1" r="0.5"/><circle cx="1" cy="-1" r="0.5"/><circle cx="-1" cy="-1" r="0.5"/></g><g transform="translate(17 7)"><circle cx="0" cy="0" r="1"/><circle cx="1" cy="1" r="0.5"/><circle cx="-1" cy="1" r="0.5"/><circle cx="1" cy="-1" r="0.5"/><circle cx="-1" cy="-1" r="0.5"/></g><g transform="translate(7 17)"><circle cx="0" cy="0" r="1"/><circle cx="1" cy="1" r="0.5"/><circle cx="-1" cy="1" r="0.5"/><circle cx="1" cy="-1" r="0.5"/><circle cx="-1" cy="-1" r="0.5"/></g><g transform="translate(17 17)"><circle cx="0" cy="0" r="1"/><circle cx="1" cy="1" r="0.5"/><circle cx="-1" cy="1" r="0.5"/><circle cx="1" cy="-1" r="0.5"/><circle cx="-1" cy="-1" r="0.5"/></g></g><circle cx="4" cy="4" r="1.5" stroke-width="1"/><circle cx="12" cy="4" r="1.5" stroke-width="1"/><circle cx="20" cy="4" r="1.5" stroke-width="1"/><circle cx="4" cy="12" r="1.5" stroke-width="1"/><circle cx="20" cy="12" r="1.5" stroke-width="1"/></svg>
