<svg xmlns="http://www.w3.org/2000/svg" width="24" height="24" viewBox="0 0 24 24" fill="none" stroke="currentColor" stroke-width="2" stroke-linecap="round" stroke-linejoin="round"><circle cx="12" cy="12" r="10" stroke-width="1.5"/><g transform="rotate(0 12 12)"><path d="M12 12 Q 10 7, 10 3" stroke-width="1" fill="none"/><path d="M11 5 L 9 4" stroke-width="0.8"/><path d="M11 7 L 9 6" stroke-width="0.8"/><path d="M11 9 L 9 8" stroke-width="0.8"/></g><g transform="rotate(50 12 12)"><path d="M12 12 Q 10 7, 10 3" stroke-width="1" fill="none"/><path d="M11 5 L 9 4" stroke-width="0.8"/><path d="M11 7 L 9 6" stroke-width="0.8"/><path d="M11 9 L 9 8" stroke-width="0.8"/></g><g transform="rotate(100 12 12)"><path d="M12 12 Q 10 7, 10 3" stroke-width="1" fill="none"/><path d="M11 5 L 9 4" stroke-width="0.8"/><path d="M11 7 L 9 6" stroke-width="0.8"/><path d="M11 9 L 9 8" stroke-width="0.8"/></g><g transform="rotate(150 12 12)"><path d="M12 12 Q 10 7, 10 3" stroke-width="1" fill="none"/><path d="M11 5 L 9 4" stroke-width="0.8"/><path d="M11 7 L 9 6" stroke-width="0.8"/><path d="M11 9 L 9 8" stroke-width="0.8"/></g><g transform="rotate(200 12 12)"><path d="M12 12 Q 10 7, 10 3" stroke-width="1" fill="none"/><path d="M11 5 L 9 4" stroke-width="0.8"/><path d="M11 7 L 9 6" stroke-width="0.8"/><path d="M11 9 L 9 8" stroke-width="0.8"/></g><g transform="rotate(250 12 12)"><path d="M12 12 Q 10 7, 10 3" stroke-width="1" fill="none"/><path d="M11 5 L 9 4" stroke-width="0.8"/><path d="M11 7 L 9 6" stroke-width="0.8"/><path d="M11 9 L 9 8" stroke-width="0.8"/></g><g transform="rotate(300 12 12)"><path d="M12 12 Q 10 7, 10 3" stroke-width="1" fill="none"/><path d="M11 5 L 9 4" stroke-width="0.8"/><path d="M11 7 L 9 6" stroke-width="0.8"/><path d="M11 9 L 9 8" stroke-width="0.8"/></g></svg>
